PathFileType	4	(X/Y/Z)	Patient4_TMGait_0pt2_03_right_23.trc.trc
DataRate	CameraRate	NumFrames	NumMarkers	Units	OrigDataRate	OrigDataStartFrame	OrigNumFrames
48.275862068965	48.275862068965	4	33	mm	48.275862068965	18	       141
Frame#	Time	Sacral			L.Shoulder			Chest			R.Shoulder			Neck			R.ASIS			L.ASIS			R.Thigh.Superior			R.Thigh.Lateral			R.Thigh.Inferior			R.Patella			L.Thigh.Superior			L.Thigh.Lateral			L.Thigh.Inferior			L.Patella			L.Shank.Superior			L.Shank.Lateral			L.Shank.Inferior			R.Shank.Superior			R.Shank.Lateral			R.Shank.Inferior			R.Heel			R.Midfoot.Superior			R.Midfoot.Lateral			R.Toe			L.Heel			L.Midfoot.Lateral			L.Midfoot.Superior			L.Toe			L.Elbow			L.Wrist			R.Elbow			R.Wrist			
		X1	Y1	Z1	X2	Y2	Z2	X3	Y3	Z3	X4	Y4	Z4	X5	Y5	Z5	X6	Y6	Z6	X7	Y7	Z7	X8	Y8	Z8	X9	Y9	Z9	X10	Y10	Z10	X11	Y11	Z11	X12	Y12	Z12	X13	Y13	Z13	X14	Y14	Z14	X15	Y15	Z15	X16	Y16	Z16	X17	Y17	Z17	X18	Y18	Z18	X19	Y19	Z19	X20	Y20	Z20	X21	Y21	Z21	X22	Y22	Z22	X23	Y23	Z23	X24	Y24	Z24	X25	Y25	Z25	X26	Y26	Z26	X27	Y27	Z27	X28	Y28	Z28	X29	Y29	Z29	X30	Y30	Z30	X31	Y31	Z31	X32	Y32	Z32	X33	Y33	Z33	

18	49.512142857143	839.183365957111	1016.859780785766	396.916902930338	1095.662211454918	1433.786279244167	268.887843133702	1138.387662265362	1358.806402284945	450.841885342426	1014.355941628980	1440.616645580227	592.906639756428	1028.559091112160	1496.193249395092	416.774814846800	1035.233607335285	948.623351480498	565.492407391754	1079.926653846922	957.839900467121	293.874086135192	1105.511965545804	767.478157364350	544.482880745577	1046.731001013255	652.336495419126	615.428168484026	1134.635057933923	605.066955932081	542.447835495027	1159.278230582306	518.322887676703	564.532925374438	1106.513186162353	741.850547997034	328.132134498521	1015.335259546021	617.982996434431	253.404360303863	1094.946189212408	548.887774472020	333.978869955580	1091.125042785345	479.051922619229	342.861315289841	1056.229685133528	407.294329540619	330.922535704746	961.679488557993	301.207689298187	272.089200365748	992.135419441684	186.568254064573	347.405726853334	1130.109445409914	429.603481304332	578.185872257029	1058.567152348509	329.679054491902	647.660913400158	1113.248973682847	230.199359278486	601.893009023458	991.953775217756	53.080955991035	585.142169877276	1161.722319734723	113.030986172903	620.771339186331	1077.804846833388	45.060127390306	656.603360604458	1283.895780883566	68.482866306307	645.192083253952	849.908872708666	38.564633803499	381.805610468850	925.755623703507	35.470209063847	302.698411194386	1009.129536901036	95.581105293938	333.115158281885	1137.934935094278	42.488897393899	305.824614870802	1232.834913718111	1144.150279368899	111.123456416946	1486.004063485361	1159.413484871344	159.600090161472	826.712050271748	1138.618532515655	651.003529600627	811.517563295281	876.309309887427	638.372119359318	
19	49.532857142857	839.789573132019	1017.055371213537	399.539932151491	1095.793718826562	1434.074361661091	273.176787785492	1137.733268002467	1359.449035290651	455.375056992181	1012.952644828107	1441.442065312649	596.634383757426	1027.923135087012	1496.505299097408	420.637734395468	1034.551143332627	947.745941463073	568.858008568877	1080.998552144850	958.651297656487	297.745501600865	1103.140909839507	765.105280385230	548.471480226767	1041.332754998591	650.146900674541	617.785983708859	1129.645557363195	602.757671954863	545.689536902280	1152.846980660952	517.495502952700	566.410524840355	1104.832307536927	741.260331303047	330.490446338241	1011.956855429153	619.104551098189	254.444042271827	1090.041234033183	548.420105844545	334.712395375327	1085.018439965674	479.041314160559	343.313602485874	1050.725634010933	407.793482065354	331.126955723197	956.482679422151	301.505144104016	272.187229393676	987.431596266773	186.831827041111	347.391563037546	1126.689921322924	428.359867125986	579.853941115233	1058.049688927353	325.899106423929	648.797397828547	1115.824392611389	228.235253084752	602.632547330021	999.124134365057	49.329820454241	585.003628536104	1167.880230734358	110.897901321747	620.587041406828	1084.960531620197	42.036288751134	656.339229707427	1290.710316254925	67.803960547136	644.916576036072	845.681526281837	38.504229826941	381.809731249561	921.526195575580	35.401376889372	302.660585131811	1004.872854609044	95.544386115024	333.061868767535	1133.706815872909	42.499812595138	305.828412904252	1236.986164665260	1147.818178833835	114.917617281152	1488.379356841826	1175.273045426683	164.942591029939	825.928187838488	1139.192444411244	653.477647977684	816.025136763952	876.405644863481	639.414382322675	
20	49.553571428571	840.666405649534	1016.627880045999	402.571953198314	1095.556876530858	1434.013456254611	277.856011980856	1137.122137439556	1359.708815090177	460.198780114601	1011.730669734969	1441.654732916660	600.930558411028	1027.164976962614	1496.381152722777	425.004399084978	1034.390138249222	946.286544543405	572.343864594470	1082.381752666622	959.166187465334	301.715257480498	1101.578482428956	762.263405519089	552.481828840266	1036.755395797670	647.411722095338	619.832651248959	1125.714181640727	600.096890286052	548.719982121863	1147.208554618486	515.957964678390	568.014374607775	1103.824048800331	740.474595210183	332.951696474497	1009.311120328483	619.955791784581	255.723790025846	1085.892529233309	547.784874365675	335.640440783046	1079.711881306450	478.814906997165	343.984221846061	1045.884601703649	408.054583173236	331.544254810356	951.763032086193	301.767006649613	272.416819482309	982.975937371061	186.981348838149	347.455177594692	1123.421273697691	426.488825400948	581.298714388767	1056.797514557939	322.300397882664	649.569564082647	1116.724944289460	226.106644534002	603.094291853668	1003.142310685534	46.781287417917	584.523044644357	1171.231761631200	108.805072162714	620.336766543395	1088.713021483076	39.903058856062	656.018841487740	1294.179140307640	66.255986899223	644.930157003425	841.466578159820	38.459616177409	381.810937426987	917.311169639369	35.340406117994	302.628371018356	1000.643600077599	95.500232737317	333.027163106528	1129.493762149342	42.479973447523	305.830979789253	1240.576613742390	1151.011352011302	118.981716774852	1489.864480979808	1189.835058902633	170.191863490858	826.186716255133	1138.526543334161	656.880868278524	821.198720316396	875.382969345028	641.864828967043	
21	49.574285714286	841.824929039175	1015.747452238258	405.952052750740	1095.048341066763	1433.735946254827	282.928475935503	1136.586989872038	1359.709932646699	465.335451828367	1010.682801664053	1441.391170131364	605.776029700989	1026.322353354493	1495.948332642203	429.867475978288	1034.722795347331	944.442068124648	575.993313046408	1084.091262885886	959.484658448553	305.822896155636	1100.811481201007	759.178277991209	556.494937527265	1033.098666967398	644.364616973716	621.615509496845	1122.887868002862	597.299760330719	551.532031202638	1142.518957678795	513.930573453973	569.381055932899	1103.416449232579	739.545317573555	335.584731746307	1007.304402262979	620.608859537382	257.271881514533	1082.368485962488	547.036106790321	336.818961446444	1075.069548492252	478.430994791665	344.917905085351	1041.581350335948	408.145996079456	332.200610942577	947.427740632650	302.035776907037	272.793155923735	978.722328966057	187.058193042548	347.603489500709	1120.483728339337	424.175676469467	582.528023101521	1055.055519676685	318.928408561213	650.043959888687	1116.259321394070	223.821696017359	603.272982762268	1004.394005528328	45.123481010757	583.763588706467	1172.166637864794	106.778595628298	619.990871034199	1089.541363111755	38.467250009406	655.649701194356	1294.854846656388	64.053575872282	645.102595799434	837.264158431728	38.434266491329	381.808015947221	913.109850196580	35.293590239476	302.605459837937	996.441734073779	95.460688287925	333.007204093651	1125.293013841361	42.439251238668	305.833545838658	1243.563938911777	1153.766865640125	123.310520193484	1490.538513288156	1202.992567276807	175.342644074457	827.354875555984	1136.855365286446	661.177318995076	826.752238709538	873.486632178644	645.687902571252	
